<?xml version="1.0" encoding="UTF-8" standalone="no"?>
<!DOCTYPE svg PUBLIC "-//W3C//DTD SVG 1.1//EN"
 "http://www.w3.org/Graphics/SVG/1.1/DTD/svg11.dtd">
<!-- Generated by graphviz version 2.26.3 (20100126.1600)
 -->
<!-- Title: G Pages: 1 -->
<svg width="344pt" height="76pt"
 viewBox="0.00 0.00 344.00 76.00" xmlns="http://www.w3.org/2000/svg" xmlns:xlink="http://www.w3.org/1999/xlink">
<g id="graph1" class="graph" transform="scale(1 1) rotate(0) translate(4 72)">
<title>G</title>
<polygon fill="white" stroke="white" points="-4,5 -4,-72 341,-72 341,5 -4,5"/>
<g id="graph2" class="cluster"><title>cluster_default</title>
<polyline fill="none" stroke="none" points="270,-8 316,-8 "/>
<path fill="none" stroke="none" d="M316,-8C322,-8 328,-14 328,-20"/>
<polyline fill="none" stroke="none" points="328,-20 328,-48 "/>
<path fill="none" stroke="none" d="M328,-48C328,-54 322,-60 316,-60"/>
<polyline fill="none" stroke="none" points="316,-60 270,-60 "/>
<path fill="none" stroke="none" d="M270,-60C264,-60 258,-54 258,-48"/>
<polyline fill="none" stroke="none" points="258,-48 258,-20 "/>
<path fill="none" stroke="none" d="M258,-20C258,-14 264,-8 270,-8"/>
</g>
<!-- \\news -->
<g id="node2" class="node"><title>\\news</title>
<a xlink:href="db_class_news.html" xlink:title="news" target="_parent">
<polygon fill="none" stroke="black" points="320,-52 266,-52 266,-16 320,-16 320,-52"/>
<text text-anchor="middle" x="293" y="-31.1" font-family="Courier New" font-size="11.00">news</text>
</a>
</g>
<!-- \\AbstractEvtClass -->
<g id="node4" class="node"><title>\\AbstractEvtClass</title>
<ellipse fill="none" stroke="black" cx="97" cy="-34" rx="96.8736" ry="18.3848"/>
<text text-anchor="middle" x="97" y="-30.4" font-family="Times Roman,serif" font-size="14.00" fill="gray">\AbstractEvtClass</text>
</g>
<!-- \\news&#45;&gt;\\AbstractEvtClass -->
<g id="edge3" class="edge"><title>\\news&#45;&gt;\\AbstractEvtClass</title>
<path fill="none" stroke="black" d="M265.747,-34C249.346,-34 227.284,-34 204.53,-34"/>
<polygon fill="none" stroke="black" points="204.399,-30.5001 194.399,-34 204.399,-37.5001 204.399,-30.5001"/>
</g>
</g>
</svg>
